<svg width="800" height="130" xmlns="http://www.w3.org/2000/svg" style="font-family: 'Segoe UI', Arial, sans-serif;">
  <rect width="100%" height="100%" fill="#1A1D23" />

  <defs>
    <pattern id="gridPattern" width="20" height="20" patternUnits="userSpaceOnUse">
      <path d="M 20 0 L 0 0 0 20" fill="none" stroke="#2A2D33" stroke-width="0.5"/>
    </pattern>
  </defs>
  <rect width="100%" height="100%" fill="url(#gridPattern)" opacity="0.3"/>

  <text x="400" y="60" font-size="38" fill="#E91E63" text-anchor="middle" font-weight="bold" letter-spacing="1">
    LOUISE FERREIRA
    <animate attributeName="opacity" values="0.7;1;0.7" dur="3s" repeatCount="indefinite" />
  </text>

  <text x="400" y="95" font-size="18" fill="#BB86FC" text-anchor="middle" font-weight="normal" letter-spacing="0.5">
    AI/ML Specialist • Cybersecurity Professional • Chevening Scholar
  </text>

  <line x1="200" y1="115" x2="600" y2="115" stroke="#BB86FC" stroke-width="1" opacity="0.5"/>

  <g transform="translate(50, 45) scale(0.8)">
    <path d="M20,10 C20,5 15,0 10,0 C5,0 0,5 0,10 C0,12 1,14 2,15 L2,18 C2,19 3,20 4,20 L6,20 C7,20 8,19 8,18 L8,16 L12,16 L12,18 C12,19 13,20 14,20 L16,20 C17,20 18,19 18,18 L18,15 C19,14 20,12 20,10 Z M6,10 C5,10 4,9 4,8 C4,7 5,6 6,6 C7,6 8,7 8,8 C8,9 7,10 6,10 Z M12,14 L8,14 C8,13 7,12 6,12 L6,12 C4,12 3,13 2,14 C2,12 4,10 6,11 C8,12 12,12 14,11 C16,10 18,12 18,14 C17,13 16,12 14,12 L14,12 C13,12 12,13 12,14 Z M14,10 C13,10 12,9 12,8 C12,7 13,6 14,6 C15,6 16,7 16,8 C16,9 15,10 14,10 Z" fill="#E91E63" opacity="0.7"/>
  </g>
  <g transform="translate(730, 45) scale(0.8)">
    <path d="M20,10 C20,5 15,0 10,0 C5,0 0,5 0,10 C0,12 1,14 2,15 L2,18 C2,19 3,20 4,20 L6,20 C7,20 8,19 8,18 L8,16 L12,16 L12,18 C12,19 13,20 14,20 L16,20 C17,20 18,19 18,18 L18,15 C19,14 20,12 20,10 Z M6,10 C5,10 4,9 4,8 C4,7 5,6 6,6 C7,6 8,7 8,8 C8,9 7,10 6,10 Z M12,14 L8,14 C8,13 7,12 6,12 L6,12 C4,12 3,13 2,14 C2,12 4,10 6,11 C8,12 12,12 14,11 C16,10 18,12 18,14 C17,13 16,12 14,12 L14,12 C13,12 12,13 12,14 Z M14,10 C13,10 12,9 12,8 C12,7 13,6 14,6 C15,6 16,7 16,8 C16,9 15,10 14,10 Z" fill="#E91E63" opacity="0.7"/>
  </g>
</svg>