<svg width="700" height="280" xmlns="http://www.w3.org/2000/svg" style="font-family: 'Segoe UI', Arial, sans-serif;">
  <rect width="100%" height="100%" fill="#1A1D23" />

  <text x="350" y="40" font-size="22" fill="#BB86FC" text-anchor="middle" font-weight="bold">TECHNICAL PROFICIENCY MATRIX</text>

  <text x="50" y="90" font-size="15" fill="#E0E0E0" font-weight="600">Natural Language Processing</text>
  <rect x="280" y="75" width="350" height="20" rx="5" fill="#2A2D33" />
  <rect x="280" y="75" width="320" height="20" rx="5" fill="#E91E63">
    <animate attributeName="width" from="0" to="320" dur="1.5s" fill="freeze" begin="0.2s"/>
  </rect>
  <text x="640" y="90" font-family="monospace" font-size="18" fill="#E91E63">💀</text>

  <text x="50" y="130" font-size="15" fill="#E0E0E0" font-weight="600">Machine Learning</text>
  <rect x="280" y="115" width="350" height="20" rx="5" fill="#2A2D33" />
  <rect x="280" y="115" width="300" height="20" rx="5" fill="#BB86FC">
     <animate attributeName="width" from="0" to="300" dur="1.5s" fill="freeze" begin="0.4s"/>
  </rect>
  <text x="640" y="130" font-family="monospace" font-size="18" fill="#BB86FC">💀</text>

  <text x="50" y="170" font-size="15" fill="#E0E0E0" font-weight="600">Cybersecurity Intelligence</text>
  <rect x="280" y="155" width="350" height="20" rx="5" fill="#2A2D33" />
  <rect x="280" y="155" width="280" height="20" rx="5" fill="#00BCD4">
     <animate attributeName="width" from="0" to="280" dur="1.5s" fill="freeze" begin="0.6s"/>
  </rect>
  <text x="640" y="170" font-family="monospace" font-size="18" fill="#00BCD4">💀</text>

  <text x="50" y="210" font-size="15" fill="#E0E0E0" font-weight="600">Data Analysis & Privacy</text>
  <rect x="280" y="195" width="350" height="20" rx="5" fill="#2A2D33" />
  <rect x="280" y="195" width="260" height="20" rx="5" fill="#00E676">
     <animate attributeName="width" from="0" to="260" dur="1.5s" fill="freeze" begin="0.8s"/>
  </rect>
  <text x="640" y="210" font-family="monospace" font-size="18" fill="#00E676">💀</text>
  
  <text x="350" y="250" font-size="12" fill="#757575" text-anchor="middle">
    (💀 proficiency indicators reflect current focus & depth)
  </text>
</svg>