<svg width="800" height="120" xmlns="http://www.w3.org/2000/svg">
  <rect width="100%" height="100%" fill="#240041" />
  <path d="M10,60 L50,60 L70,40 L120,40 L140,60 L200,60 M250,20 L300,20 L320,40 L400,40 M450,80 L500,80 L520,60 L570,60 L590,80 L650,80 M700,30 L750,30" stroke="#9932CC" stroke-width="1.5" fill="none" opacity="0.7" />
  <text x="400" y="70" font-family="Arial, sans-serif" font-size="24" fill="#FFFFFF" text-anchor="middle" font-weight="bold">
    RESEARCH FOCUS: AI FAIRNESS &amp; SECURITY
  </text>
  <g transform="translate(30, 80) scale(0.6)">
    <path d="M20,10 C20,5 15,0 10,0 C5,0 0,5 0,10 C0,12 1,14 2,15 L2,18 C2,19 3,20 4,20 L6,20 C7,20 8,19 8,18 L8,16 L12,16 L12,18 C12,19 13,20 14,20 L16,20 C17,20 18,19 18,18 L18,15 C19,14 20,12 20,10 Z M6,10 C5,10 4,9 4,8 C4,7 5,6 6,6 C7,6 8,7 8,8 C8,9 7,10 6,10 Z M12,14 L8,14 C8,13 7,12 6,12 L6,12 C4,12 3,13 2,14 C2,12 4,10 6,11 C8,12 12,12 14,11 C16,10 18,12 18,14 C17,13 16,12 14,12 L14,12 C13,12 12,13 12,14 Z M14,10 C13,10 12,9 12,8 C12,7 13,6 14,6 C15,6 16,7 16,8 C16,9 15,10 14,10 Z" fill="white" />
  </g>
  <g transform="translate(750, 80) scale(0.6)">
    <path d="M20,10 C20,5 15,0 10,0 C5,0 0,5 0,10 C0,12 1,14 2,15 L2,18 C2,19 3,20 4,20 L6,20 C7,20 8,19 8,18 L8,16 L12,16 L12,18 C12,19 13,20 14,20 L16,20 C17,20 18,19 18,18 L18,15 C19,14 20,12 20,10 Z M6,10 C5,10 4,9 4,8 C4,7 5,6 6,6 C7,6 8,7 8,8 C8,9 7,10 6,10 Z M12,14 L8,14 C8,13 7,12 6,12 L6,12 C4,12 3,13 2,14 C2,12 4,10 6,11 C8,12 12,12 14,11 C16,10 18,12 18,14 C17,13 16,12 14,12 L14,12 C13,12 12,13 12,14 Z M14,10 C13,10 12,9 12,8 C12,7 13,6 14,6 C15,6 16,7 16,8 C16,9 15,10 14,10 Z" fill="white" />
  </g>
</svg>