<svg width="800" height="200" xmlns="http://www.w3.org/2000/svg">
  <defs>
    <linearGradient id="aiCoreGradient" x1="0%" y1="0%" x2="100%" y2="100%">
      <stop offset="0%" style="stop-color:#8a2be2; stop-opacity:1" />
      <stop offset="100%" style="stop-color:#ff1493; stop-opacity:1" />
    </linearGradient>
    <filter id="glitch" x="-20%" y="-20%" width="140%" height="140%">
      <feTurbulence type="fractalNoise" baseFrequency="0.02 0.15" numOctaves="1" result="warp" />
      <feDisplacementMap xChannelSelector="R" yChannelSelector="G" scale="15" in="SourceGraphic" in2="warp" />
    </filter>
  </defs>
  <rect width="100%" height="100%" fill="#0f0f0f" />
  <rect x="50" y="50" width="700" height="120" rx="5" ry="5" fill="#000000" stroke="#8a2be2" stroke-width="2" />
  <text x="400" y="40" font-family="monospace" font-size="24" fill="url(#aiCoreGradient)" text-anchor="middle" font-weight="bold">
    AI &amp; ML Core Systems
  </text>
  <g transform="translate(70, 80)">
    <circle cx="20" cy="20" r="5" fill="#8a2be2" />
    <circle cx="20" cy="40" r="5" fill="#8a2be2" />
    <circle cx="20" cy="60" r="5" fill="#8a2be2" />
    <circle cx="70" cy="30" r="5" fill="#ff1493" />
    <circle cx="70" cy="50" r="5" fill="#ff1493" />
    <circle cx="120" cy="20" r="5" fill="#00ff00" />
    <circle cx="120" cy="40" r="5" fill="#00ff00" />
    <circle cx="120" cy="60" r="5" fill="#00ff00" />
    <line x1="20" y1="20" x2="70" y2="30" stroke="#8a2be2" stroke-width="1" opacity="0.5" />
    <line x1="20" y1="40" x2="70" y2="30" stroke="#8a2be2" stroke-width="1" opacity="0.5" />
    <line x1="20" y1="40" x2="70" y2="50" stroke="#8a2be2" stroke-width="1" opacity="0.5" />
    <line x1="20" y1="60" x2="70" y2="50" stroke="#8a2be2" stroke-width="1" opacity="0.5" />
    <line x1="70" y1="30" x2="120" y2="20" stroke="#ff1493" stroke-width="1" opacity="0.5" />
    <line x1="70" y1="30" x2="120" y2="40" stroke="#ff1493" stroke-width="1" opacity="0.5" />
    <line x1="70" y1="50" x2="120" y2="40" stroke="#ff1493" stroke-width="1" opacity="0.5" />
    <line x1="70" y1="50" x2="120" y2="60" stroke="#ff1493" stroke-width="1" opacity="0.5" />
  </g>
  <text x="200" y="75" font-family="monospace" font-size="12" fill="#9932CC">
    &gt; Initializing neural pathways...
  </text>
  <text x="200" y="95" font-family="monospace" font-size="12" fill="#9932CC">
    &gt; Loading knowledge base: complete
  </text>
  <text x="200" y="115" font-family="monospace" font-size="12" fill="#9932CC">
    &gt; AI system ready: Welcome Louise!
  </text>
  <g transform="translate(550, 95)">
    <path d="M20,10 C20,5 15,0 10,0 C5,0 0,5 0,10 C0,12 1,14 2,15 L2,18 C2,19 3,20 4,20 L6,20 C7,20 8,19 8,18 L8,16 L12,16 L12,18 C12,19 13,20 14,20 L16,20 C17,20 18,19 18,18 L18,15 C19,14 20,12 20,10 Z M6,10 C5,10 4,9 4,8 C4,7 5,6 6,6 C7,6 8,7 8,8 C8,9 7,10 6,10 Z M12,14 L8,14 C8,13 7,12 6,12 L6,12 C4,12 3,13 2,14 C2,12 4,10 6,11 C8,12 12,12 14,11 C16,10 18,12 18,14 C17,13 16,12 14,12 L14,12 C13,12 12,13 12,14 Z M14,10 C13,10 12,9 12,8 C12,7 13,6 14,6 C15,6 16,7 16,8 C16,9 15,10 14,10 Z" fill="#ffffff" />
  </g>
  <text x="400" y="180" font-family="monospace" font-size="16" fill="#ffffff" text-anchor="middle">
    [SYSTEM ONLINE: AI READY FOR COMMANDS]
  </text>
</svg>