<svg width="600" height="200" xmlns="http://www.w3.org/2000/svg">
  <!-- Background with subtle grid -->
  <defs>
    <pattern id="smallGrid" width="10" height="10" patternUnits="userSpaceOnUse">
      <path d="M 10 0 L 0 0 0 10" fill="none" stroke="#3a3a3a" stroke-width="0.5" opacity="0.2"/>
    </pattern>
  </defs>
  
  <rect width="100%" height="100%" fill="#171717" />
  <rect width="100%" height="100%" fill="url(#smallGrid)" />
  
  <!-- Skills Bars with Skulls -->
  
  <!-- NLP -->
  <rect x="150" y="30" width="400" height="25" rx="5" fill="#1a1a1a" stroke="#8a2be2" stroke-width="1" />
  <rect x="150" y="30" width="350" height="25" rx="5" fill="url(#nlpGradient)" />
  <text x="165" y="47" font-family="'Courier New', monospace" font-size="14" fill="white">NLP</text>
  
  <!-- ML -->
  <rect x="150" y="65" width="400" height="25" rx="5" fill="#1a1a1a" stroke="#8a2be2" stroke-width="1" />
  <rect x="150" y="65" width="320" height="25" rx="5" fill="url(#mlGradient)" />
  <text x="165" y="82" font-family="'Courier New', monospace" font-size="14" fill="white">ML</text>
  
  <!-- Cybersecurity -->
  <rect x="150" y="100" width="400" height="25" rx="5" fill="#1a1a1a" stroke="#8a2be2" stroke-width="1" />
  <rect x="150" y="100" width="380" height="25" rx="5" fill="url(#cyberGradient)" />
  <text x="165" y="117" font-family="'Courier New', monospace" font-size="14" fill="white">Cybersecurity</text>
  
  <!-- Data Analysis -->
  <rect x="150" y="135" width="400" height="25" rx="5" fill="#1a1a1a" stroke="#8a2be2" stroke-width="1" />
  <rect x="150" y="135" width="300" height="25" rx="5" fill="url(#dataGradient)" />
  <text x="165" y="152" font-family="'Courier New', monospace" font-size="14" fill="white">Data Analysis</text>
  
  <!-- Gradients -->
  <defs>
    <linearGradient id="nlpGradient" x1="0%" y1="0%" x2="100%" y2="0%">
      <stop offset="0%" style="stop-color:#9932CC; stop-opacity:1" />
      <stop offset="100%" style="stop-color:#8a2be2; stop-opacity:0.6" />
    </linearGradient>
    
    <linearGradient id="mlGradient" x1="0%" y1="0%" x2="100%" y2="0%">
      <stop offset="0%" style="stop-color:#FF1493; stop-opacity:1" />
      <stop offset="100%" style="stop-color:#FF1493; stop-opacity:0.6" />
    </linearGradient>
    
    <linearGradient id="cyberGradient" x1="0%" y1="0%" x2="100%" y2="0%">
      <stop offset="0%" style="stop-color:#00FF00; stop-opacity:1" />
      <stop offset="100%" style="stop-color:#00FF00; stop-opacity:0.6" />
    </linearGradient>
    
    <linearGradient id="dataGradient" x1="0%" y1="0%" x2="100%" y2="0%">
      <stop offset="0%" style="stop-color:#1E90FF; stop-opacity:1" />
      <stop offset="100%" style="stop-color:#1E90FF; stop-opacity:0.6" />
    </linearGradient>
  </defs>
  
  <!-- Skill Labels -->
  <text x="30" y="47" font-family="'Courier New', monospace" font-size="14" fill="white" font-weight="bold">Natural Language Processing</text>
  <text x="30" y="82" font-family="'Courier New', monospace" font-size="14" fill="white" font-weight="bold">Machine Learning</text>
  <text x="30" y="117" font-family="'Courier New', monospace" font-size="14" fill="white" font-weight="bold">Cybersecurity</text>
  <text x="30" y="152" font-family="'Courier New', monospace" font-size="14" fill="white" font-weight="bold">Data Analysis</text>
  
  <!-- Skulls at the end of each bar -->
  <svg x="500" y="30" width="25" height="25">
    <path d="M20,10 C20,5 15,0 10,0 C5,0 0,5 0,10 C0,12 1,14 2,15 L2,18 C2,19 3,20 4,20 L6,20 C7,20 8,19 8,18 L8,16 L12,16 L12,18 C12,19 13,20 14,20 L16,20 C17,20 18,19 18,18 L18,15 C19,14 20,12 20,10 Z M6,10 C5,10 4,9 4,8 C4,7 5,6 6,6 C7,6 8,7 8,8 C8,9 7,10 6,10 Z M12,14 L8,14 C8,13 7,12 6,12 L6,12 C4,12 3,13 2,14 C2,12 4,10 6,11 C8,12 12,12 14,11 C16,10 18,12 18,14 C17,13 16,12 14,12 L14,12 C13,12 12,13 12,14 Z M14,10 C13,10 12,9 12,8 C12,7 13,6 14,6 C15,6 16,7 16,8 C16,9 15,10 14,10 Z" fill="white"/>
  </svg>
  
  <svg x="500" y="65" width="25" height="25">
    <path d="M20,10 C20,5 15,0 10,0 C5,0 0,5 0,10 C0,12 1,14 2,15 L2,18 C2,19 3,20 4,20 L6,20 C7,20 8,19 8,18 L8,16 L12,16 L12,18 C12,19 13,20 14,20 L16,20 C17,20 18,19 18,18 L18,15 C19,14 20,12 20,10 Z M6,10 C5,10 4,9 4,8 C4,7 5,6 6,6 C7,6 8,7 8,8 C8,9 7,10 6,10 Z M12,14 L8,14 C8,13 7,12 6,12 L6,12 C4,12 3,13 2,14 C2,12 4,10 6,11 C8,12 12,12 14,11 C16,10 18,12 18,14 C17,13 16,12 14,12 L14,12 C13,12 12,13 12,14 Z M14,10 C13,10 12,9 12,8 C12,7 13,6 14,6 C15,6 16,7 16,8 C16,9 15,10 14,10 Z" fill="white"/>
  </svg>
  
  <svg x="500" y="100" width="25" height="25">
    <path d="M20,10 C20,5 15,0 10,0 C5,0 0,5 0,10 C0,12 1,14 2,15 L2,18 C2,19 3,20 4,20 L6,20 C7,20 8,19 8,18 L8,16 L12,16 L12,18 C12,19 13,20 14,20 L16,20 C17,20 18,19 18,18 L18,15 C19,14 20,12 20,10 Z M6,10 C5,10 4,9 4,8 C4,7 5,6 6,6 C7,6 8,7 8,8 C8,9 7,10 6,10 Z M12,14 L8,14 C8,13 7,12 6,12 L6,12 C4,12 3,13 2,14 C2,12 4,10 6,11 C8,12 12,12 14,11 C16,10 18,12 18,14 C17,13 16,12 14,12 L14,12 C13,12 12,13 12,14 Z M14,10 C13,10 12,9 12,8 C12,7 13,6 14,6 C15,6 16,7 16,8 C16,9 15,10 14,10 Z" fill="white"/>
  </svg>
  
  <svg x="500" y="135" width="25" height="25">
    <path d="M20,10 C20,5 15,0 10,0 C5,0 0,5 0,10 C0,12 1,14 2,15 L2,18 C2,19 3,20 4,20 L6,20 C7,20 8,19 8,18 L8,16 L12,16 L12,18 C12,19 13,20 14,20 L16,20 C17,20 18,19 18,18 L18,15 C19,14 20,12 20,10 Z M6,10 C5,10 4,9 4,8 C4,7 5,6 6,6 C7,6 8,7 8,8 C8,9 7,10 6,10 Z M12,14 L8,14 C8,13 7,12 6,12 L6,12 C4,12 3,13 2,14 C2,12 4,10 6,11 C8,12 12,12 14,11 C16,10 18,12 18,14 C17,13 16,12 14,12 L14,12 C13,12 12,13 12,14 Z M14,10 C13,10 12,9 12,8 C12,7 13,6 14,6 C15,6 16,7 16,8 C16,9 15,10 14,10 Z" fill="white"/>
  </svg>
  
  <!-- Title -->
  <text x="300" y="180" font-family="'Courier New', monospace" font-size="16" fill="#9932CC" text-anchor="middle" font-weight="bold">
    TECHNICAL PROFICIENCY MATRIX
  </text>
</svg>